<?xml version="1.0" encoding="utf-8"?>
<svg viewBox="135.1009979248047 3773.85791015625 3399.51220703125 781.5693359375" width="3399.51220703125" height="781.5693359375" xmlns="http://www.w3.org/2000/svg">
  <path id="path72" style="fill:#4f4c4c;fill-opacity:1;fill-rule:nonzero;stroke:none" d="m 6757.95,3314.5 c 0,-813.3 -338.06,-1547.8 -881.35,-2070.3 C 5360.31,747.5 4658.65,442.199 3885.61,442.199 c -773.05,0 -1474.71,305.301 -1991,802.001 -543.31,522.5 -881.35,1257 -881.35,2070.3 0,1586.4 1285.98,2872.4 2872.35,2872.4 1586.36,0 2872.34,-1286 2872.34,-2872.4" transform="matrix(0.1333329975605011, 0, 0, -0.1333329975605011, 0, 4614.38671875)"/>
  <path id="path74" style="fill:#ffffff;fill-opacity:1;fill-rule:nonzero;stroke:none" d="m 6502.53,3314.5 c 0,-741 -308,-1410.1 -802.98,-1886.2 C 5229.18,975.797 4589.91,697.598 3885.61,697.598 c -704.33,0 -1343.58,278.199 -1813.96,730.702 -494.98,476.1 -802.97,1145.2 -802.97,1886.2 0,1445.3 1171.62,2616.9 2616.93,2616.9 1445.3,0 2616.92,-1171.6 2616.92,-2616.9" transform="matrix(0.1333329975605011, 0, 0, -0.1333329975605011, 0, 4614.38671875)"/>
  <g transform="matrix(0.14235831014392275, 0, 0, -0.14235831014392275, 0, 4614.38671875)" id="g76">
    <path id="path78" style="fill:#4dc4d6;fill-opacity:1;fill-rule:nonzero;stroke:none" d="m 16300,5226.12 c 0,-374.54 -303.6,-678.18 -678.2,-678.18 -374.5,0 -678.2,303.64 -678.2,678.18 0,374.55 303.7,678.2 678.2,678.2 374.6,0 678.2,-303.65 678.2,-678.2"/>
  </g>
  <path id="path80" style="fill:#4dc4d6;fill-opacity:1;fill-rule:nonzero;stroke:none" d="m 11899.7,3660 c -125.3,0 -215.6,-31 -271,-93 -55.5,-62.1 -90.4,-180.6 -104.7,-355.7 h 746 c -7.2,167.7 -38.5,284.5 -93.9,350.2 -55.5,65.7 -147.6,98.5 -276.4,98.5 z m 32.2,-2254.6 c -1016.1,0 -1524.1,503.4 -1524.1,1510.4 0,1028.8 513.4,1543.2 1540.2,1543.2 443.6,0 772.8,-110.4 987.4,-331.1 214.7,-220.8 322,-562.8 322,-1026.1 0,-102.2 -3.6,-189.7 -10.7,-262.7 -7.2,-73 -19.7,-145.9 -37.6,-218.8 h -1679.7 c 7.2,-80.3 20.6,-144.2 40.3,-191.6 19.6,-47.4 48.3,-84 85.8,-109.4 37.6,-25.6 86.7,-42 147.6,-49.3 60.8,-7.3 134.2,-10.9 220,-10.9 75.2,0 158.4,3.6 249.6,10.9 91.2,7.3 186,16.4 284.4,27.4 98.4,10.9 195.9,23.7 292.5,38.3 96.6,14.5 186,30.9 268.3,49.2 l 26.8,-809.9 c -171.7,-51.1 -365.8,-92.2 -582.2,-123.1 -216.5,-31 -426.7,-46.5 -630.6,-46.5" transform="matrix(0.1333329975605011, 0, 0, -0.1333329975605011, 0, 4614.38671875)"/>
  <path id="path82" style="fill:#4dc4d6;fill-opacity:1;fill-rule:nonzero;stroke:none" d="m 14955.4,1389.2 c -348.3,0 -611.3,78.4 -788.9,235.1 -177.7,156.7 -266.5,384.8 -266.5,684.4 v 1135.6 h -417.9 V 4459 h 491.1 l 288.3,780.8 H 14992 V 4459 h 595.6 V 3444.3 h -590.4 v -869.1 c 0,-142.9 23.5,-240.3 70.6,-292.6 47,-52.2 128,-78.3 242.9,-78.3 80.1,0 174.1,19.1 282.2,57.4 v -794.1 c -76.7,-24.4 -172.5,-43.6 -287.4,-57.5 -115,-13.9 -231.7,-20.9 -350.1,-20.9" transform="matrix(0.1333329975605011, 0, 0, -0.1333329975605011, 0, 4614.38671875)"/>
  <g transform="matrix(0.14087431717187826, 0, 0, -0.14087431717187826, 0, 4614.38671875)" id="g84">
    <path id="path86" style="fill:#4dc4d6;fill-opacity:1;fill-rule:nonzero;stroke:none" d="M 15261.5,4220.28 H 16300 V 1374.17 h -1038.5 v 2846.11"/>
  </g>
  <g transform="matrix(0.19824084585725288, 0, 0, -0.19824084585725288, 0, 4614.38671875)" id="g88">
    <path id="path90" style="fill:#4dc4d6;fill-opacity:1;fill-rule:nonzero;stroke:none" d="m 16038.2,2741.37 c -174.6,174.2 -430.5,261.37 -767.9,261.37 -337.3,0 -593.2,-87.17 -767.8,-261.37 -174.5,-174.27 -261.7,-430.65 -261.7,-769.23 0,-338.64 87.2,-595.7 261.7,-771.11 174.6,-175.48 430.5,-263.184 767.8,-263.184 337.4,0 593.3,87.704 767.9,263.184 174.5,175.41 261.8,432.47 261.8,771.11 0,338.58 -87.3,594.96 -261.8,769.23"/>
  </g>
  <g transform="matrix(0.21684744585587623, 0, 0, -0.21684744585587623, 0, 4614.38671875)" id="g92">
    <path id="path94" style="fill:#4dc4d6;fill-opacity:1;fill-rule:nonzero;stroke:none" d="m 15908.1,854.177 c -214.2,0 -375.9,48.207 -485.2,144.557 -109.2,96.356 -163.8,236.606 -163.8,420.816 v 648.94 h -257 v 559.04 h 302 l 96.3,539.67 530.1,54.6 v -594.27 h 366.2 v -559.04 h -362.9 v -485.07 c 0,-87.87 14.4,-147.76 43.3,-179.92 28.9,-32.09 78.7,-48.14 149.4,-48.14 49.2,0 107.1,11.74 173.5,35.29 V 902.384 c -47.2,-15.002 -106.1,-26.807 -176.7,-35.355 -70.7,-8.546 -142.5,-12.852 -215.2,-12.852"/>
  </g>
  <path id="path96" style="fill:#4dc4d6;fill-opacity:1;fill-rule:nonzero;stroke:none" d="M 9867.27,5318.2 H 9694.34 L 9010.46,3802.4 8326.57,5318.2 h -65.86 -107.06 -1131.2 L 8454.02,2695.4 V 1451.9 H 9582.57 V 2721.5 L 10998.5,5318.2 H 9867.27" transform="matrix(0.1333329975605011, 0, 0, -0.1333329975605011, 0, 4614.38671875)"/>
  <g transform="matrix(0.17090891077599935, 0, 0, -0.17090891077599935, 0, 4614.38671875)" id="g98">
    <path id="path100" style="fill:#4dc4d6;fill-opacity:1;fill-rule:nonzero;stroke:none" d="m 15018.9,1684.17 c 81.7,0 148,6.94 198.7,21.06 50.7,14.12 89.5,42.28 116.3,84.57 26.7,42.28 45.1,102.11 55,179.74 9.8,77.47 14.8,179.66 14.8,306.52 0,112.73 -4.3,204.31 -12.7,274.84 -8.4,70.37 -23.3,126.07 -44.4,167.03 -21.2,40.8 -51.5,68.26 -90.9,82.38 -39.5,14.12 -90.3,21.14 -152.2,21.14 -64.9,0 -118.4,-9.21 -160.7,-27.46 -42.3,-18.33 -76.9,-49.38 -103.6,-92.99 -26.8,-43.77 -45.8,-102.98 -57,-177.64 -11.4,-74.66 -17,-168.43 -17,-281.16 v -524.26 c 59.2,-22.62 143.8,-33.77 253.7,-33.77 z m 0,-587.76 c -73.3,0 -147.3,2.89 -221.9,8.42 -74.8,5.7 -156.5,14.83 -245.3,27.54 -88.8,12.64 -188.2,30.19 -298.1,52.81 -109.9,22.55 -235.4,50.71 -376.2,84.57 v 2818.02 h 887.8 v -894.19 c 73.3,92.99 163.5,161.33 270.6,205.02 107.1,43.69 229.7,65.53 367.9,65.53 597.5,0 896.3,-369.32 896.3,-1107.72 0,-403.1 -108.5,-712.5 -325.6,-928.13 -217,-215.56 -535.5,-326.18 -955.5,-331.87"/>
  </g>
  <path id="path102" style="fill:#4f4c4c;fill-opacity:1;fill-rule:nonzero;stroke:none" d="m 6310.84,3314.5 c 0,-686.7 -285.44,-1306.8 -744.16,-1748 -435.91,-419.4 -1028.35,-677.203 -1681.07,-677.203 -652.73,0 -1245.17,257.803 -1681.09,677.203 -458.72,441.2 -744.15,1061.3 -744.15,1748 0,1339.5 1085.8,2425.3 2425.24,2425.3 1339.43,0 2425.23,-1085.8 2425.23,-2425.3" transform="matrix(0.1333329975605011, 0, 0, -0.1333329975605011, 0, 4614.38671875)"/>
  <path id="path104" style="fill:#656263;fill-opacity:1;fill-rule:nonzero;stroke:none" d="m 3421.28,4624.8 c -2.63,-2.1 -5.82,-4.4 -9.1,-6.8 3.75,2.8 6.71,5 9.1,6.8" transform="matrix(0.1333329975605011, 0, 0, -0.1333329975605011, 0, 4614.38671875)"/>
  <path id="path106" style="fill:#ffffff;fill-opacity:1;fill-rule:nonzero;stroke:none" d="M 5686.53,2575.1 V 1480.5 C 5219.53,1031.2 4584.85,755 3885.61,755 c -699.26,0 -1333.93,276.2 -1800.93,725.5 v 1041.2 l 1.9,157.2 c -0.18,9.2 -0.39,18.5 -0.39,27.6 0,23.4 0.48,46.5 1.53,69.6 v 0.9 h 0.09 c 16.08,361.9 155.89,694 380.93,960.6 -114.03,-3.5 -279.15,44.8 -279.15,44.8 551.92,189.3 571.04,277 540.7,310.6 -84.94,72.8 -299.6,-6.8 -299.6,-6.8 113.95,237.6 359.99,101.5 381.97,174.8 59.25,226.4 -203.73,246 -203.73,246 170.71,57 348.67,-63.2 437.6,-98.3 0,0 0.1,-0.1 0.28,-0.2 1.15,-0.5 2.39,-1 3.53,-1.4 17.79,-6.7 94.73,-31.2 165.78,14.6 2.57,1.8 5.23,3.6 7.88,5.4 0.2,0.2 0.49,0.4 0.87,0.6 1.61,1.2 3.13,2.4 4.66,3.4 0.47,0.4 0.86,0.8 1.34,1 184.5,125.9 402.78,305.6 611.84,358.7 0,0 -226.93,-239.4 -93.22,-361.4 115.47,-90.7 159.89,17.6 160.18,18.4 16.65,47 19.69,112.2 1.41,148.3 0,0 231.32,1.1 437.35,-220.8 26.52,-28.5 50.3,-49.4 72.25,-64 133.84,-89.5 303.51,95.4 495.27,121.3 -8.96,-3.8 -260.79,-116.6 158.64,-440.5 61.9,-58.2 222.74,-138.7 227.78,103.9 0,0 175.2,-242.5 90.54,-364.6 -38.32,-55.3 20.36,-162.5 21.79,-165.1 92.93,-164.2 203.06,-426.8 232.74,-617.6 25.58,-120.6 39.09,-245.5 39.09,-373.6" transform="matrix(0.1333329975605011, 0, 0, -0.1333329975605011, 0, 4614.38671875)"/>
  <path id="path108" style="fill:#656263;fill-opacity:1;fill-rule:nonzero;stroke:none" d="m 3286.72,4330.7 c -3.59,-2.7 -7.2,-5.3 -10.04,-7.4 3.8,2.9 7.14,5.4 10.04,7.4" transform="matrix(0.1333329975605011, 0, 0, -0.1333329975605011, 0, 4614.38671875)"/>
  <path id="path110" style="fill:#4f4c4c;fill-opacity:1;fill-rule:nonzero;stroke:none" d="m 4072.65,3291.2 c 0,-79.1 64.09,-143.2 143.18,-143.2 79.07,0 143.16,64.1 143.16,143.2 0,79.1 -64.09,143.2 -143.16,143.2 -79.09,0 -143.18,-64.1 -143.18,-143.2" transform="matrix(0.1333329975605011, 0, 0, -0.1333329975605011, 0, 4614.38671875)"/>
  <path id="path112" style="fill:#4f4c4c;fill-opacity:1;fill-rule:nonzero;stroke:none" d="m 3451.13,3291.2 c 0,-79.1 64.14,-143.2 143.18,-143.2 79.08,0 143.19,64.1 143.19,143.2 0,79.1 -64.11,143.2 -143.19,143.2 -79.04,0 -143.18,-64.1 -143.18,-143.2" transform="matrix(0.1333329975605011, 0, 0, -0.1333329975605011, 0, 4614.38671875)"/>
  <path id="path114" style="fill:#4f4c4c;fill-opacity:1;fill-rule:nonzero;stroke:none" d="m 3194.44,2571.1 -64.74,-131.9 h -85.17 l 149.91,305.5 124.01,-252.6 123.92,252.6 123.9,-252.5 123.86,252.6 123.95,-252.6 123.81,252.6 123.86,-252.6 123.92,252.6 123.9,-252.6 123.86,252.6 123.82,-252.6 64.69,131.9 h 85.19 l -149.88,-305.6 -123.84,252.5 -123.84,-252.5 -123.9,252.6 -123.92,-252.6 -123.86,252.6 -123.81,-252.6 -123.95,252.6 -123.86,-252.6 -123.9,252.6 -123.92,-252.6 -124.01,252.6" transform="matrix(0.1333329975605011, 0, 0, -0.1333329975605011, 0, 4614.38671875)"/>
  <g transform="matrix(0.19462751012843782, 0, 0, -0.19462751012843782, 0, 4614.38671875)" id="g116">
    <path id="path118" style="fill:#ffffff;fill-opacity:1;fill-rule:nonzero;stroke:none" d="m 15064.7,1400.69 c -23.8,0 -47.1,8.23 -65.6,23.16 -45.1,36.24 -52.2,102.35 -16,147.36 l 474.5,589.64 c 0,0 -6.4,16.23 -9.6,24.18 -4,10.14 -8,20 -12,29.87 l -4.3,10.82 c -5.4,13.36 -10.9,26.58 -16.3,39.53 -10.8,25.9 -22,51.38 -33.3,75.84 -25.4,54.94 -48,95.98 -71,129.06 -6.7,9.6 -12.9,17.88 -19.2,25.42 -1.6,2.06 -3.1,3.84 -4.6,5.48 0,0 -4.2,4.87 -5.1,5.96 -1,0.96 -2.2,2.33 -3.4,3.7 -2.1,2.19 -4.1,4.45 -6.3,6.51 -0.2,0.2 -0.4,0.41 -0.6,0.62 -2.2,2.39 -4.6,4.52 -7,6.64 l -2.6,2.54 -3.2,2.74 c -2.2,1.85 -4.4,3.76 -6.6,5.48 -0.2,0.13 -0.4,0.27 -0.6,0.41 -1.4,1.16 -2.8,2.33 -4.2,3.29 0,0 -4.6,3.35 -5.5,3.9 -1.1,0.75 -2.3,1.58 -3.5,2.33 -2.1,1.44 -4.3,2.81 -6.5,4.04 -0.4,0.21 -0.7,0.41 -1,0.62 -2.1,1.3 -4.2,2.33 -6.3,3.42 -1.1,0.55 -2.2,1.17 -3.3,1.78 -1.5,0.62 -2.9,1.24 -4.4,1.92 -1.8,0.83 -3.7,1.72 -5.6,2.4 -0.3,0.14 -0.7,0.28 -1.1,0.41 -6.2,2.61 -13,4.52 -21.1,6.58 l -3,0.62 c -2.4,0.54 -4.8,1.09 -7.3,1.37 -1.5,0.2 -2.7,0.34 -3.8,0.54 -0.9,0.14 -1.8,0.28 -2.7,0.41 l -5.8,0.55 c -4.8,0.41 -10.1,0.62 -16.7,0.62 -2,0 -4,0 -6,0 -2,-0.07 -4.3,-0.27 -6.6,-0.41 -1.6,-0.07 -3.2,-0.21 -4.9,-0.27 -1.9,-0.14 -4.2,-0.42 -6.5,-0.69 l -4.1,-0.41 c -7.1,-1.03 -14.6,-2.06 -21.4,-3.5 l -5.4,-1.09 -9,-2.13 c -2.1,-0.47 -4.1,-0.95 -6.1,-1.5 -2.2,-0.62 -4.8,-1.31 -7.3,-2.06 -3.9,-1.03 -7.6,-2.05 -11.2,-3.22 l -9.6,-3.01 -8.1,-2.81 -7.9,-2.67 -7.3,-2.74 c -6.6,-2.4 -12.3,-4.73 -17.5,-6.78 l -7,-2.75 -15,-6.37 -5.4,-2.19 c -2.6,-1.03 -5.2,-1.57 -7.9,-1.57 -6.4,0 -12.7,3.08 -16.7,8.56 -5.6,7.74 -5,18.29 1.2,25.48 l 3.9,4.39 c 1,1.16 1.8,2.12 2.8,3.15 2.4,2.74 5.4,6.16 9.1,10.07 l 2.4,2.4 c 4.8,5 10.9,11.16 18.2,17.74 0,0 6.3,5.89 6.4,6.03 l 6.9,5.89 c 0,0 7.9,6.71 8.1,6.85 l 8.1,6.37 c 5.2,4.18 10.8,8.09 16.7,12.2 l 2.3,1.64 c 2.5,1.78 5,3.36 7.5,4.94 l 4.6,3.01 c 1.5,0.96 3,1.92 4.6,2.88 l 6.1,3.49 c 7.1,4.25 15.6,8.77 25.8,13.56 l 4.6,2.06 c 3.2,1.44 6.6,2.94 10,4.38 l 4.8,1.79 c 3.6,1.37 7.2,2.8 11,4.04 l 9.6,3.08 c 2.6,0.82 5.2,1.64 7.9,2.26 l 4,1.03 c 4.1,1.03 8.8,2.26 13.7,3.08 l 8.2,1.58 c 3.4,0.61 6.2,0.96 9.1,1.3 l 1.1,0.13 c 5.5,0.83 11.3,1.24 16.8,1.58 l 2.9,0.21 c 4.7,0.2 9,0.27 13.3,0.27 10.5,0 20.3,-0.55 29.8,-1.78 6.1,-0.55 12.6,-1.71 18.7,-2.88 l 2.7,-0.48 c 0.4,-0.07 5.4,-1.23 5.4,-1.23 5.6,-1.24 11.3,-2.61 17.2,-4.45 7.4,-2.06 14.5,-4.59 21.6,-7.2 2.9,-1.09 5.4,-2.19 8,-3.29 l 2.8,-1.16 c 3.6,-1.44 7.2,-3.15 10.9,-4.93 7.1,-3.22 14.1,-6.99 20.5,-10.55 l 3.8,-2.2 c 5.5,-3.22 11.1,-6.57 16.7,-10.34 6.3,-4.04 12.8,-8.7 18.8,-13.09 2.5,-1.84 4.8,-3.63 7,-5.41 l 2.3,-1.78 c 3.1,-2.33 6.1,-4.93 9.2,-7.46 10.4,-8.57 21.4,-18.64 34.2,-31.52 39,-39.39 74.5,-86.32 111.8,-147.77 28.6,-47.13 56.8,-101.11 86.4,-165.03 27.1,-58.85 52.3,-119 73.2,-170.1 6.8,-16.51 13.5,-32.89 20.1,-49.19 16.4,-40.56 32,-78.85 48,-116.87 5.6,-13.36 11.3,-26.59 17.1,-39.6 5.7,-13.56 11.6,-26.58 17.2,-38.71 12.4,-27.27 24,-51.11 35.3,-72.96 26.2,-50.42 51.4,-89.61 77.1,-119.95 2.5,-3.09 4.9,-5.62 7.3,-8.22 l 2.9,-3.29 c 1.5,-1.44 2.9,-2.95 4.3,-4.46 1.9,-2.05 3.9,-4.11 6,-6.02 0.2,-0.21 0.3,-0.42 0.5,-0.55 2.6,-2.6 5.2,-5 7.9,-7.4 l 2.3,-2.12 5.5,-4.53 c 2,-1.78 3.5,-2.87 5.1,-4.11 3.3,-2.6 6.1,-4.59 8.9,-6.57 l 2.4,-1.65 c 0.6,-0.48 1.5,-1.03 2.4,-1.57 1,-0.62 5.4,-3.5 5.4,-3.5 l 2.5,-1.44 c 7.1,-4.31 14.2,-7.53 22.6,-11.23 l 5.9,-2.26 c 0.5,-0.14 8.5,-2.88 8.5,-2.88 l 2.6,-0.68 5.7,-1.58 c 9.2,-2.12 16.6,-3.49 23.2,-4.18 8.2,-0.96 16.6,-1.44 25.1,-1.44 7.4,0 15.2,0.41 23,1.1 0.2,0 0.5,0 0.7,0.07 2.2,0.07 4.4,0.41 6.5,0.68 1.7,0.21 3.3,0.41 5,0.62 3.3,0.34 6.3,0.89 9.5,1.37 l 7.6,1.23 c 0.6,0.14 9.5,1.99 9.5,1.99 2.1,0.41 4.3,0.82 6.4,1.3 l 6.3,1.58 c 4.9,1.16 9.7,2.32 14.3,3.69 1.7,0.48 3.2,0.9 4.7,1.31 1.7,0.48 3.5,0.96 5.2,1.44 l 9.7,3.01 c 4.4,1.3 8.3,2.67 12,3.97 l 5.5,1.85 c 3.9,1.24 7.3,2.54 10.7,3.77 l 11.6,4.25 5.9,2.33 11.6,4.45 c 13.3,5.48 20.9,8.43 20.9,8.43 2.4,0.89 4.8,1.37 7.4,1.37 6.5,0 12.9,-3.22 16.9,-8.91 5.4,-7.81 4.7,-18.36 -1.7,-25.41 l -6.5,-7.27 c -2.5,-2.67 -5.5,-6.09 -9.3,-9.93 -1.7,-1.71 -3.1,-3.22 -4.7,-4.8 -4.3,-4.31 -9.6,-9.72 -16,-15.34 -8.8,-8.29 -18.7,-16.85 -29.2,-25.07 l -8.7,-6.65 c -2.2,-1.78 -4.6,-3.42 -7,-5.14 l -6.1,-4.31 c -2.5,-1.79 -5.1,-3.57 -7.8,-5.28 l -10.6,-6.71 c -2.7,-1.78 -5.5,-3.36 -8.3,-5 l -5.7,-3.29 c -1.6,-0.89 -3.2,-1.85 -4.9,-2.74 l -8.1,-4.25 c -4,-1.99 -8,-4.11 -12.6,-6.1 -1.3,-0.54 -2.7,-1.23 -4.1,-1.85 -3.5,-1.57 -7.1,-3.22 -10.8,-4.65 -22.3,-9.12 -45.8,-15.76 -69.3,-19.46 -11.3,-1.92 -24,-3.01 -40.8,-3.49 -0.2,0 -6.2,0.06 -6.2,0.06 -5.2,0 -10.6,0.07 -16.5,0.62 l -2.6,0.21 c -2.6,0.2 -5.2,0.34 -7.8,0.61 l -10.9,1.44 c -15.9,2.33 -31.1,5.82 -45.6,10.41 -14.5,4.39 -29.4,10.28 -44.2,17.47 -6.5,3.02 -12.9,6.51 -19.1,9.94 l -1.8,1.09 -2.5,1.37 c -6,3.63 -12.3,7.33 -18.5,11.51 -5.9,3.77 -11.9,8.09 -17.7,12.26 l -1.6,1.17 -4.1,3.15 c -5,3.84 -10.2,7.81 -15.2,12.06 -6.2,5.07 -12.5,10.62 -17.8,15.41 -2,1.92 -3.8,3.63 -5.7,5.41 l -7.2,6.92 -4.4,4.39 c -9.8,9.66 -19.8,20.41 -32.3,34.94 -9,10.41 -18.5,22.19 -29.7,36.99 -8.4,11.37 -18.1,24.66 -27.5,38.84 -31.8,47.48 -62.1,101.33 -92.8,164.56 -13.8,28.5 -27.9,59.32 -42.8,93.58 l -401.5,-498.87 c -20,-24.87 -49.8,-39.12 -81.7,-39.12"/>
  </g>
  <g transform="matrix(0.1943608475665357, 0, 0, -0.1943608475665357, 0, 4614.38671875)" id="g120">
    <path id="path122" style="fill:#ffffff;fill-opacity:1;fill-rule:nonzero;stroke:none" d="m 16279.1,1603.13 c -3.5,-1.3 -7.2,-2.74 -11.4,-4.38 -2.1,-0.83 -4.3,-1.65 -6.5,-2.55 -2.3,-0.82 -4.6,-1.71 -7.1,-2.6 -4.9,-1.78 -10.1,-3.77 -15.8,-5.63 -5.7,-1.85 -11.6,-4.04 -17.9,-5.9 -3.1,-1.02 -6.4,-1.98 -9.7,-3.02 -3.2,-1.02 -6.7,-1.84 -10.2,-2.88 -6.9,-2.05 -14.2,-3.63 -21.7,-5.55 -3.7,-0.89 -7.6,-1.51 -11.5,-2.33 -2,-0.42 -3.9,-0.9 -5.9,-1.24 -2,-0.34 -4,-0.62 -6,-0.96 -4,-0.69 -8,-1.37 -12.2,-1.78 -4.1,-0.48 -8.3,-1.24 -12.6,-1.44 -16.9,-1.51 -34.5,-1.65 -52,0.41 -8.9,0.89 -17.6,2.67 -26.3,4.66 -2.1,0.62 -4.3,1.24 -6.5,1.86 -1.1,0.27 -2.2,0.55 -3.3,0.89 l -3.1,1.09 c -2.1,0.69 -4.3,1.38 -6.5,2.13 -2,0.82 -4.1,1.65 -6.3,2.47 -8.3,3.64 -16.6,7.41 -24.7,12.35 l -3.1,1.71 -3,1.99 c -2,1.31 -4,2.47 -6,3.84 -4,2.82 -8,5.49 -11.8,8.65 -2,1.51 -3.9,3.02 -5.8,4.66 -2,1.65 -3.9,3.23 -5.9,4.87 -3.7,3.43 -7.6,6.8 -11.3,10.57 -3.8,3.57 -7.4,7.61 -11.2,11.39 -3.6,4.11 -7.3,8.02 -10.9,12.34 -28.9,34.03 -55.2,76.63 -79.8,123.97 -12.3,23.6 -24.3,48.43 -35.9,74.02 -5.8,12.76 -11.7,25.72 -17.3,38.96 -5.8,13.1 -11.5,26.48 -17.2,39.93 -22.7,53.92 -45.1,109.96 -68.2,166.49 -23.2,56.46 -47.1,113.47 -73.1,169.51 -25.8,56.05 -53.7,111.07 -85.3,163.21 -31.6,52.06 -66.8,101.6 -108.9,144.13 -10.6,10.63 -21.4,20.85 -33,30.32 -2.9,2.4 -5.7,4.73 -8.6,7 -3,2.33 -5.9,4.59 -8.9,6.79 -5.9,4.46 -11.9,8.71 -18.2,12.76 -6.1,4.11 -12.6,7.82 -18.8,11.52 -6.5,3.57 -12.9,7 -19.6,10.09 -3.3,1.58 -6.5,3.08 -9.9,4.46 -3.4,1.44 -6.7,2.81 -10,4.11 -6.8,2.54 -13.5,4.94 -20.4,6.86 -6.7,2.13 -13.7,3.57 -20.4,5.15 -6.8,1.23 -13.6,2.54 -20.3,3.15 -13.4,1.72 -26.6,1.99 -39.2,1.44 -6.3,-0.48 -12.5,-0.75 -18.5,-1.64 -3,-0.41 -6,-0.76 -9,-1.24 -2.8,-0.55 -5.7,-1.16 -8.6,-1.71 -5.7,-0.96 -11.2,-2.54 -16.6,-3.84 -2.7,-0.69 -5.3,-1.51 -7.9,-2.34 -2.6,-0.82 -5.1,-1.64 -7.7,-2.46 -5,-1.72 -9.8,-3.64 -14.6,-5.43 -4.7,-1.92 -9.1,-4.04 -13.6,-5.96 -8.7,-4.12 -16.9,-8.37 -24.5,-12.83 -1.8,-1.1 -3.7,-2.2 -5.6,-3.22 -1.8,-1.1 -3.6,-2.27 -5.3,-3.43 -3.5,-2.27 -7,-4.4 -10.2,-6.66 -6.4,-4.53 -12.6,-8.78 -18.2,-13.24 -2.7,-2.13 -5.4,-4.25 -8.1,-6.31 -2.5,-2.2 -5,-4.26 -7.3,-6.25 -2.4,-2.05 -4.7,-4.04 -6.9,-5.96 -2.1,-1.99 -4.2,-3.84 -6.1,-5.7 -8.1,-7.27 -14.5,-13.99 -19.6,-19.27 -5.1,-5.29 -8.8,-9.61 -11.3,-12.42 -2.6,-2.88 -3.9,-4.39 -3.9,-4.39 0,0 1.9,0.75 5.4,2.19 3.5,1.51 8.7,3.64 15.5,6.52 6.9,2.68 15,6.04 24.8,9.67 2.4,0.96 5,1.86 7.6,2.89 2.7,0.89 5.3,1.78 8.2,2.74 2.8,0.96 5.6,1.99 8.6,2.95 3,0.96 6,1.92 9.2,2.88 6.2,2.13 12.9,3.71 19.7,5.7 3.5,0.89 7.1,1.71 10.7,2.53 1.8,0.42 3.6,0.9 5.4,1.31 1.8,0.34 3.7,0.75 5.6,1.09 7.4,1.58 15.2,2.75 23.1,3.84 4,0.35 8.1,0.9 12.1,1.17 4.1,0.21 8.2,0.62 12.3,0.76 8.3,0.06 16.7,0.06 25.1,-0.76 2.1,-0.2 4.2,-0.41 6.3,-0.62 2.1,-0.27 4.2,-0.61 6.2,-0.89 4.3,-0.48 8.4,-1.51 12.6,-2.33 8.3,-2.06 16.5,-4.32 24.6,-7.68 4,-1.45 7.9,-3.5 12,-5.22 3.9,-2.12 7.9,-3.91 11.7,-6.31 3.9,-2.19 7.7,-4.87 11.5,-7.27 1.9,-1.3 3.7,-2.74 5.6,-4.11 2,-1.31 3.8,-2.75 5.7,-4.26 3.7,-2.88 7.3,-6.17 11,-9.33 3.7,-3.36 7.4,-6.59 10.9,-10.29 3.6,-3.57 7,-7.48 10.6,-11.25 1.8,-1.92 3.5,-3.98 5.3,-5.97 1.7,-1.99 3.4,-4.04 5.1,-6.17 6.9,-8.37 13.6,-17.36 20.2,-26.82 26.3,-37.73 50.2,-83.22 73,-132.41 11.4,-24.55 22.5,-50.14 33.5,-76.48 5.5,-13.11 11,-26.42 16.4,-39.93 5.4,-13.52 11,-27.03 16.4,-40.82 3.2,-7.96 6.4,-15.91 9.5,-23.94 l 4.6,-11.39 -482.7,-599.84 c -29.2,-36.3 -23.5,-89.39 12.8,-118.62 15.6,-12.55 34.3,-18.66 52.9,-18.66 24.6,0 49.1,10.78 65.7,31.49 l 423.6,526.24 c 17.6,-41.71 36.1,-83.35 56,-124.3 27.1,-56.12 57,-110.93 91.5,-162.38 8.5,-12.9 17.6,-25.45 26.8,-37.87 9.3,-12.28 18.8,-24.42 28.9,-36.02 10.1,-11.73 20.4,-23.11 31.3,-33.89 l 4.1,-4.11 4.2,-3.98 c 2.7,-2.61 5.4,-5.28 8.3,-7.89 5.7,-5.15 11.4,-10.22 17.4,-15.09 5.7,-4.94 11.9,-9.54 18,-14.2 6.2,-4.53 12.2,-8.99 18.8,-13.1 6.3,-4.19 12.9,-8.1 19.3,-11.94 6.7,-3.64 13.2,-7.34 20.1,-10.5 13.5,-6.58 27.4,-12.14 41.5,-16.46 13.9,-4.39 28.1,-7.55 42.1,-9.54 3.4,-0.48 6.9,-0.96 10.3,-1.37 3.5,-0.34 6.9,-0.55 10.4,-0.82 6.8,-0.69 13.5,-0.48 20.1,-0.62 13.3,0.34 26,1.17 38.2,3.23 24.3,3.84 46.1,10.56 65.4,18.45 4.8,1.85 9.4,4.11 14,6.11 4.5,1.98 8.8,4.32 13.1,6.44 2.1,1.1 4.1,2.2 6.2,3.3 2.1,1.03 4.1,2.26 6,3.36 4,2.33 7.8,4.46 11.5,6.79 3.6,2.33 7.2,4.6 10.7,6.79 3.5,2.19 6.7,4.67 9.9,6.86 3.2,2.33 6.4,4.39 9.4,6.72 2.9,2.27 5.7,4.46 8.6,6.59 11,8.71 20.4,16.94 28.3,24.28 8,7.21 14.3,13.93 19.5,19.07 5.2,5.35 9,9.61 11.6,12.42 2.5,2.88 3.8,4.32 3.8,4.32 0,0 -7.4,-2.88 -20.9,-8.44"/>
  </g>
</svg>