<?xml version="1.0" standalone="no"?>
<!DOCTYPE svg PUBLIC "-//W3C//DTD SVG 20010904//EN"
 "http://www.w3.org/TR/2001/REC-SVG-20010904/DTD/svg10.dtd">
<svg version="1.0" xmlns="http://www.w3.org/2000/svg"
 width="700.000000pt" height="700.000000pt" viewBox="0 0 700.000000 700.000000"
 preserveAspectRatio="xMidYMid meet">
<metadata>
Created by potrace 1.11, written by Peter Selinger 2001-2013
</metadata>
<g transform="translate(0.000000,700.000000) scale(0.100000,-0.100000)"
fill="#000000" stroke="none">
<path d="M3250 6994 c-958 -86 -1759 -484 -2380 -1185 -460 -518 -751 -1167
-847 -1884 -24 -186 -24 -668 0 -850 57 -417 161 -761 337 -1120 481 -975
1379 -1669 2440 -1885 271 -55 368 -64 695 -64 303 -1 358 3 605 45 1086 180
2045 899 2540 1904 176 359 280 703 337 1120 24 182 24 664 0 850 -117 875
-514 1625 -1168 2205 -516 458 -1174 754 -1879 846 -119 15 -574 27 -680 18z
m570 -325 c602 -56 1197 -301 1683 -691 131 -105 370 -344 475 -475 829 -1031
939 -2457 279 -3599 -511 -884 -1401 -1460 -2437 -1575 -135 -15 -505 -15
-640 0 -774 86 -1455 419 -1980 967 -958 1002 -1161 2507 -500 3724 146 269
324 505 549 731 166 165 295 272 474 393 621 417 1337 596 2097 525z"/>
<path d="M3365 6454 c-622 -37 -1168 -235 -1648 -598 -591 -446 -1001 -1115
-1126 -1836 -68 -391 -61 -772 20 -1148 99 -460 305 -881 616 -1261 l78 -96 6
730 c6 770 6 772 55 970 62 250 186 509 340 711 35 46 64 85 64 87 0 2 -33 7
-72 10 -72 5 -224 33 -242 44 -5 3 49 27 120 53 423 155 607 285 492 347 -43
23 -171 22 -257 -1 -35 -9 -66 -15 -69 -12 -9 10 43 76 84 106 62 44 87 51
223 59 145 9 151 13 151 102 0 66 -12 104 -43 137 -31 34 -100 72 -155 87
l-47 12 60 8 c88 12 187 -12 356 -85 123 -54 152 -63 201 -62 67 1 87 10 221
105 156 112 335 230 407 270 74 41 219 101 227 94 3 -3 -14 -29 -36 -57 -83
-105 -125 -231 -102 -303 15 -45 68 -92 120 -108 34 -10 44 -9 73 8 45 26 70
96 63 176 l-5 59 43 -7 c168 -26 318 -108 482 -265 142 -136 177 -138 440 -20
83 37 165 71 184 75 l35 7 -27 -31 c-14 -18 -32 -49 -38 -70 -30 -101 69 -251
276 -416 155 -124 247 -111 284 40 l17 69 46 -90 c80 -156 97 -257 57 -336
-35 -68 -24 -112 74 -315 134 -277 187 -426 231 -648 42 -215 46 -294 46 -932
l1 -608 40 45 c198 223 393 542 515 848 268 667 278 1449 28 2115 -361 962
-1173 1660 -2177 1872 -205 43 -539 70 -732 59z"/>
<path d="M3080 3634 c-45 -20 -68 -41 -91 -86 -58 -113 27 -248 156 -248 129
0 214 135 156 248 -24 47 -50 70 -98 88 -49 17 -80 17 -123 -2z"/>
<path d="M3835 3632 c-51 -24 -92 -72 -101 -118 -22 -119 53 -214 171 -214 97
0 175 80 175 179 0 42 -40 111 -79 137 -51 33 -115 40 -166 16z"/>
<path d="M2567 2625 c-48 -96 -87 -180 -87 -185 0 -6 23 -10 50 -10 l50 0 37
75 c21 41 40 75 43 74 3 0 36 -65 74 -145 39 -79 72 -144 75 -143 4 0 37 65
75 145 39 79 73 144 76 144 4 0 38 -65 76 -145 38 -79 72 -144 75 -145 3 0 37
65 75 145 38 79 71 145 74 145 3 0 38 -66 79 -147 l73 -148 77 153 77 154 69
-147 c38 -80 72 -148 77 -151 4 -3 40 63 80 146 l72 152 77 -153 76 -154 75
150 75 150 76 -150 75 -150 91 183 c50 100 91 184 91 187 0 3 -24 5 -53 5
l-53 0 -38 -77 -38 -78 -75 150 -76 150 -75 -150 -75 -150 -73 148 c-41 81
-77 147 -80 147 -3 0 -37 -65 -75 -145 -38 -80 -71 -145 -75 -145 -3 0 -36 65
-74 145 -38 80 -72 145 -75 145 -3 0 -38 -66 -79 -147 l-74 -148 -73 148 c-41
81 -76 147 -79 147 -3 0 -36 -66 -74 -145 -38 -80 -72 -145 -75 -145 -3 1 -37
66 -75 145 -38 80 -72 145 -76 145 -4 0 -38 -65 -76 -145 -38 -79 -71 -144
-75 -145 -3 0 -36 65 -75 144 -38 80 -71 145 -74 145 -3 1 -45 -78 -93 -174z"/>
</g>
</svg>
